# xmcd
#
# Track frame offsets:
#	150
#	26187
#	46334
#	70311
#	94133
#	124155
#	137982
#	158744
#	170896
#
# Disc length: 2514 seconds
#
# Revision: 0
# Processed by: cddbd v1.5.1PL0 Copyright (c) Steve Scherf et al.
# Submitted via: dBpowerAMP V4.0
#
DISCID=8309d009
DTITLE=Ben Harper - Live at the Wireless JJJ
DYEAR=2001
DGENRE=Blues
TTITLE0=Roses From My Friends
TTITLE1=Walk Away
TTITLE2=Glory and Consequence
TTITLE3=Please Bleed
TTITLE4=Sexual Healing
TTITLE5=Indifference (with Eddie Vedder)
TTITLE6=Pleasure and Pain
TTITLE7=Burn One Down
TTITLE8=With My Own Two Hands
EXTD=
EXTT0=
EXTT1=
EXTT2=
EXTT3=
EXTT4=
EXTT5=
EXTT6=
EXTT7=
EXTT8=
PLAYORDER=
